<svg xmlns="http://www.w3.org/2000/svg" viewBox="0 0 1000 1000" role="img" aria-label="Nathan Syvash portfolio logo">
  <path d="M 286.5 307.5 L 260.5 339.5 L 242 367.5 L 224 401.5 L 211 433 L 202 461.5 L 193 504.5 L 189.5 538.5 L 189.5 581 L 193 615.5 L 201.5 656.5 L 212.5 691 L 225 720.5 L 238 745.5 L 261 781 L 284 809.5 L 309.5 835.5 L 333 855.5 L 368.5 880 L 398.5 896.5 L 437.5 913 L 480.5 925.5 L 510 931 L 545.5 934.5 L 582 934.5 L 621 930.5 L 651.5 924.5 L 691.5 912.5 L 724 899 L 755 882.5 L 786 862 L 816.5 837 L 840.5 813 L 859.5 790.5 L 878 764.5 L 893.5 738.5 L 906.5 711.5 L 884 733 L 854.5 756 L 825.5 774.5 L 791 792 L 748 808 L 721.5 815 L 692 820.5 L 651.5 824 L 616 823.5 L 582.5 820 L 540 811 L 513 802.5 L 479 788.5 L 447 771.5 L 415.5 750.5 L 388.5 728.5 L 365.5 706 L 350 688.5 L 332 665 L 316 640.5 L 299 608.5 L 288.5 584 L 279.5 558 L 272.5 531.5 L 265 485 L 263.5 461 L 264 426 L 267.5 392.5 L 274.5 357.5 L 285.5 321.5 L 294.5 299.5 Z" fill="#5a5a5a"/>
  <path d="M 543 42 L 515.5 38 L 485.5 35.5 L 442 35.5 L 404 39 L 369.5 45 L 326.5 56.5 L 279.5 74.5 L 242 93.5 L 205.5 116.5 L 172 142.5 L 140 172.5 L 108 209.5 L 86 240.5 L 65 276.5 L 44 323 L 30 365.5 L 21 405 L 15 452.5 L 14 496 L 17 538 L 25 584.5 L 34 618 L 43.5 645.5 L 53 668.5 L 72.5 707 L 97 745.5 L 125 781 L 157.5 814.5 L 194 845 L 224.5 866 L 269 890.5 L 304 905.5 L 345.5 919 L 385.5 928 L 352 912 L 323.5 895.5 L 294.5 875.5 L 259.5 846.5 L 232.5 819.5 L 207.5 790 L 186.5 760.5 L 168 729.5 L 152 697 L 137 658.5 L 126.5 622.5 L 119 585.5 L 114.5 547 L 113.5 504.5 L 115.5 471 L 120 437.5 L 130 393.5 L 143 354 L 155.5 324.5 L 166.5 302.5 L 182.5 275 L 206.5 240.5 L 233.5 208.5 L 267.5 175.5 L 303.5 147 L 344 121.5 L 382 102.5 L 428.5 85 L 465.5 75 L 509 67.5 L 545.5 64.5 L 591 65 L 638.5 70.5 L 614.5 61 L 588 52.5 Z" fill="#5a5a5a"/>
  <path d="M 680.5 149 L 647.5 152 L 629 155.5 L 652 161.5 L 678.5 171 L 706 184 L 719 191.5 L 743.5 208 L 759 220.5 L 782.5 243 L 794.5 256.5 L 807 272.5 L 821 293.5 L 829 307.5 L 841.5 334 L 851.5 362 L 858.5 390 L 862.5 416.5 L 864 436.5 L 864 461 L 861 493 L 856 518.5 L 850.5 538.5 L 841 564.5 L 827.5 592.5 L 816.5 611 L 804 629 L 788 648.5 L 769.5 667.5 L 753 682 L 727.5 700.5 L 706.5 713 L 680.5 725.5 L 650 736.5 L 629 741.5 L 659.5 747 L 700 748.5 L 732 746 L 761 740.5 L 793 731 L 819.5 720 L 844 707 L 870.5 689.5 L 892.5 671.5 L 914 650 L 933.5 626 L 948.5 603.5 L 962.5 577.5 L 973.5 551 L 981.5 525.5 L 988 494.5 L 991 466 L 991 431 L 988.5 406 L 982.5 375.5 L 974 347.5 L 963 321 L 950 296.5 L 932.5 270 L 914 247.5 L 892 225.5 L 868.5 206.5 L 846 191.5 L 816.5 176 L 794.5 167 L 765.5 158 L 739 152.5 L 712.5 149.5 Z" fill="#5a5a5a"/>
  <path d="M 757.5 295.5 L 744.5 276 L 731.5 260 L 714 242.5 L 697.5 229 L 678.5 216.5 L 657.5 205.5 L 642 199 L 621.5 192.5 L 603 188.5 L 578 185.5 L 550 185.5 L 534.5 187 L 510 191.5 L 487 198.5 L 469 206 L 450 216 L 429.5 229.5 L 413 243 L 397.5 258.5 L 385 273.5 L 371 294 L 359 317 L 346.5 352 L 341.5 375.5 L 339.5 393.5 L 339 415 L 341 440.5 L 345 462 L 352.5 487 L 359.5 504 L 369.5 523 L 366.5 497.5 L 366.5 472 L 368.5 452.5 L 376 419 L 386.5 391.5 L 403 361.5 L 423 335.5 L 449 310.5 L 476 291.5 L 499 279.5 L 513.5 273.5 L 534 267 L 558 262 L 576 260 L 607 260 L 625.5 262 L 647.5 266.5 L 668.5 273 L 687.5 281 L 708 292 L 724.5 303 L 739.5 315 L 757 332 L 773.5 352 L 785 369.5 L 781 351.5 L 775 332.5 L 768 315.5 Z" fill="#5a5a5a"/>
</svg>